/vscmnt/brussel_pixiu_data/_data_brussel/112/vsc11236/PredSimResults/SUBJ04mtu3D/worker1.mot
version=1
nRows=5
nColumns=50
inDegrees=yes
endheader
                time	         pelvis_tilt	         pelvis_list	     pelvis_rotation	           pelvis_tx	           pelvis_ty	           pelvis_tz	       hip_flexion_r	     hip_adduction_r	      hip_rotation_r	        knee_angle_r	       ankle_angle_r	         mtp_angle_r	       hip_flexion_l	     hip_adduction_l	      hip_rotation_l	        knee_angle_l	       ankle_angle_l	         mtp_angle_l	    lumbar_extension	      lumbar_bending	     lumbar_rotation	 ercspn_r/activation	 intobl_r/activation	 extobl_r/activation	    abd_r/activation	    add_r/activation	hamstrings_r/activation	bifemsh_r/activation	glut_max_r/activation	iliopsoas_r/activation	rect_fem_r/activation	  vasti_r/activation	gastroc_r/activation	 soleus_r/activation	tib_ant_r/activation	 ercspn_l/activation	 intobl_l/activation	 extobl_l/activation	    abd_l/activation	    add_l/activation	hamstrings_l/activation	bifemsh_l/activation	glut_max_l/activation	iliopsoas_l/activation	rect_fem_l/activation	  vasti_l/activation	gastroc_l/activation	 soleus_l/activation	tib_ant_l/activation	
          2.63885913	        -11.67269664	          0.79759955	        -14.27487902	          2.48052759	          0.84307525	          0.02018345	        -11.76575490	         -4.70730426	          9.84100147	        -10.04474701	         -1.63930550	         48.96733655	         40.15990674	        -10.65888153	         -2.97827906	         -9.63583063	         -9.31887282	          0.24183566	         -6.93344654	         -0.74551670	         12.67444444	          0.01203867	          0.01000007	          0.01000008	          0.03132992	          0.01009405	          0.01000052	          0.01010046	          0.03616912	          0.92053139	          0.17262667	          0.56051845	          0.01000617	          0.38542452	          0.02165516	          0.10514949	          0.15884232	          0.01938825	          0.01000003	          0.12597461	          0.08437194	          0.01001040	          0.20448796	          0.23122898	          0.07088608	          0.37038224	          0.01293133	          0.01293872	          0.01000196	
          2.65645153	        -12.82292579	          2.07514112	        -14.57222020	          2.50308105	          0.83808134	          0.01595383	        -11.28835053	         -6.35544771	          9.43050375	        -10.47311222	         -2.86998157	         49.75489557	         39.97196785	         -9.61064474	         -4.88940091	         -9.55379830	        -10.32885059	          0.22130417	         -5.45379172	         -2.35453233	         12.75520141	          0.11886063	          0.01000004	          0.01000007	          0.02422654	          0.01000007	          0.01000010	          0.01000197	          0.02796856	          0.94723481	          0.13348907	          0.56107960	          0.01000495	          0.38546173	          0.01674539	          0.08330255	          0.12282829	          0.01499245	          0.01000003	          0.11544923	          0.14577326	          0.01000791	          0.36627379	          0.17880286	          0.05482046	          0.32815181	          0.01000053	          0.01000557	          0.01673158	
          2.67404392	        -13.96652896	          3.30686934	        -14.78935884	          2.52475775	          0.83491841	          0.01153632	        -10.63330592	         -7.91440121	          9.10974779	        -11.00961620	         -4.29974218	         49.54262608	         40.09971416	         -8.40565983	         -5.66388219	        -10.01102009	        -10.12324431	          0.30459305	         -4.18134103	         -3.93312955	         12.77395521	          0.35999791	          0.01000012	          0.01000020	          0.01873370	          0.01000244	          0.01000023	          0.01000264	          0.02162730	          0.87253486	          0.10322441	          0.58809426	          0.01000279	          0.29806866	          0.01294885	          0.06441560	          0.09497966	          0.01159331	          0.15483248	          0.09164468	          0.19496504	          0.01000142	          0.51956334	          0.13826322	          0.04239810	          0.40027456	          0.01000394	          0.01001891	          0.01293820	
          2.69163632	        -15.10201960	          4.31838666	        -14.87917784	          2.54451510	          0.83543028	          0.00729111	         -9.87019756	         -9.14416184	          8.76635022	        -11.39356251	         -5.91274516	         47.34228583	         40.07556485	         -7.30338393	         -6.05306376	        -10.19276288	         -8.53234405	          0.83154805	         -3.26534623	         -5.30929186	         12.68789943	          0.41035049	          0.01000011	          0.01000018	          0.01448624	          0.01000006	          0.01000008	          0.01000586	          0.01672378	          0.81901528	          0.07982166	          0.56431340	          0.01000158	          0.23048910	          0.01001336	          0.08434934	          0.07344509	          0.01000020	          0.26219454	          0.14668140	          0.21741646	          0.01001911	          0.43398680	          0.10691507	          0.03279310	          0.37019679	          0.01000890	          0.01000799	          0.01000500	
          2.70922871	        -16.19677106	          4.87000082	        -14.87739614	          2.56256933	          0.83913979	          0.00330625	         -9.09552709	         -9.81788702	          8.51402072	        -11.76495091	         -7.06550127	         42.61926703	         39.74050674	         -6.50344262	         -5.89420078	         -9.66779075	         -7.59178771	          1.34802222	         -2.74238032	         -6.20128973	         12.50991986	          0.42263322	          0.01000020	          0.01000019	          0.01120181	          0.01000009	          0.01000007	          0.01000226	          0.01293203	          0.76562742	          0.06172522	          0.53583429	          0.01000428	          0.19236201	          0.01000104	          0.14143191	          0.05679302	          0.01000027	          0.29767112	          0.21214209	          0.23304245	          0.01000305	          0.34876891	          0.08267443	          0.02536721	          0.29069572	          0.01000496	          0.01000619	          0.01000175	
